<svg xmlns="http://www.w3.org/2000/svg" viewBox="0 0 120.0 80.0">
<rect width="100%" height="100%" fill="#f5f1e8" />
<text x="3" y="5" font-size="3.2" fill="#2b2d42">spotlight seed=3 success=True</text>
<polyline points="10.00,41.27 10.89,40.96 11.79,40.65 12.68,40.33 13.57,40.02 14.46,39.71 15.36,39.39 16.25,39.08 17.14,38.76 18.04,38.45 18.93,38.14 19.82,37.82 20.71,37.51 21.61,37.20 22.50,36.88 23.39,36.57 24.29,36.25 25.18,36.68 26.07,37.10 26.96,37.52 27.86,37.94 28.75,38.36 29.64,38.78 30.54,39.20 31.43,39.62 32.32,40.04 33.21,40.47 34.11,40.89 35.00,41.31 35.89,41.73 36.79,42.15 37.68,42.57 38.57,42.99 39.46,43.03 40.36,43.07 41.25,43.11 42.14,43.15 43.04,43.19 43.93,43.23 44.82,43.27 45.71,43.31 46.61,43.35 47.50,43.39 48.39,43.42 49.29,43.46 50.18,43.50 51.07,43.54 51.96,43.58 52.86,43.62 53.75,42.61 54.64,41.60 55.54,40.60 56.43,39.59 57.32,38.58 58.21,37.57 59.11,36.56 60.00,35.55 60.89,34.55 61.79,33.54 62.68,32.53 63.57,31.52 64.46,30.51 65.36,29.50 66.25,28.50 67.14,27.49 68.04,27.39 68.93,27.30 69.82,27.20 70.71,27.11 71.61,27.02 72.50,26.92 73.39,26.83 74.29,26.73 75.18,26.64 76.07,26.54 76.96,26.45 77.86,26.36 78.75,26.26 79.64,26.17 80.54,26.07 81.43,25.98 82.32,27.46 83.21,28.95 84.11,30.43 85.00,31.91 85.89,33.40 86.79,34.88 87.68,36.37 88.57,37.85 89.46,39.33 90.36,40.82 91.25,42.30 92.14,43.78 93.04,45.27 93.93,46.75 94.82,48.24 95.71,49.72 96.61,48.68 97.50,47.64 98.39,46.60 99.29,45.56 100.18,44.52 101.07,43.48 101.96,42.43 102.86,41.39 103.75,40.35 104.64,39.31 105.54,38.27 106.43,37.23 107.32,36.19 108.21,35.15 109.11,34.11 110.00,33.07" fill="none" stroke="#c8b99a" stroke-width="15.189823135459458" />
<polyline points="10.00,41.27 10.89,40.96 11.79,40.65 12.68,40.33 13.57,40.02 14.46,39.71 15.36,39.39 16.25,39.08 17.14,38.76 18.04,38.45 18.93,38.14 19.82,37.82 20.71,37.51 21.61,37.20 22.50,36.88 23.39,36.57 24.29,36.25 25.18,36.68 26.07,37.10 26.96,37.52 27.86,37.94 28.75,38.36 29.64,38.78 30.54,39.20 31.43,39.62 32.32,40.04 33.21,40.47 34.11,40.89 35.00,41.31 35.89,41.73 36.79,42.15 37.68,42.57 38.57,42.99 39.46,43.03 40.36,43.07 41.25,43.11 42.14,43.15 43.04,43.19 43.93,43.23 44.82,43.27 45.71,43.31 46.61,43.35 47.50,43.39 48.39,43.42 49.29,43.46 50.18,43.50 51.07,43.54 51.96,43.58 52.86,43.62 53.75,42.61 54.64,41.60 55.54,40.60 56.43,39.59 57.32,38.58 58.21,37.57 59.11,36.56 60.00,35.55 60.89,34.55 61.79,33.54 62.68,32.53 63.57,31.52 64.46,30.51 65.36,29.50 66.25,28.50 67.14,27.49 68.04,27.39 68.93,27.30 69.82,27.20 70.71,27.11 71.61,27.02 72.50,26.92 73.39,26.83 74.29,26.73 75.18,26.64 76.07,26.54 76.96,26.45 77.86,26.36 78.75,26.26 79.64,26.17 80.54,26.07 81.43,25.98 82.32,27.46 83.21,28.95 84.11,30.43 85.00,31.91 85.89,33.40 86.79,34.88 87.68,36.37 88.57,37.85 89.46,39.33 90.36,40.82 91.25,42.30 92.14,43.78 93.04,45.27 93.93,46.75 94.82,48.24 95.71,49.72 96.61,48.68 97.50,47.64 98.39,46.60 99.29,45.56 100.18,44.52 101.07,43.48 101.96,42.43 102.86,41.39 103.75,40.35 104.64,39.31 105.54,38.27 106.43,37.23 107.32,36.19 108.21,35.15 109.11,34.11 110.00,33.07" fill="none" stroke="#3e3a36" stroke-width="0.8" stroke-dasharray="2 2" />
<circle cx="38.33" cy="35.79" r="1.97" fill="#a33d2b" opacity="0.62" />
<circle cx="65.81" cy="35.31" r="1.69" fill="#a33d2b" opacity="0.62" />
<circle cx="81.20" cy="32.18" r="0.89" fill="#a33d2b" opacity="0.62" />
<circle cx="77.68" cy="21.42" r="2.01" fill="#a33d2b" opacity="0.62" />
<circle cx="70.51" cy="33.62" r="1.35" fill="#a33d2b" opacity="0.62" />
<circle cx="60.26" cy="47.04" r="1.77" fill="#a33d2b" opacity="0.62" />
<polyline points="52.86,50.46 52.86,47.02 52.86,43.60" fill="none" stroke="#7f5539" stroke-width="0.45" stroke-dasharray="1 1" />
<circle cx="52.86" cy="50.46" r="0.60" fill="#7f5539" opacity="0.9" />
<polyline points="7.14,41.15 8.32,40.73 9.50,40.32 10.68,39.91 11.86,39.49 13.04,39.08 14.22,38.66 15.40,38.25 16.58,37.83 17.76,37.42 18.94,37.01 20.12,36.59 21.30,36.18 22.53,36.00 23.78,36.07 24.91,36.61 26.04,37.14 27.17,37.67 28.30,38.21 29.43,38.74 30.56,39.27 31.69,39.80 32.82,40.34 33.95,40.87 35.09,41.40 36.22,41.94 37.39,42.37 38.63,42.55 39.88,42.61 41.12,42.66 42.37,42.72 43.62,42.77 44.87,42.83 46.12,42.88 47.19,42.72 48.26,42.56 49.33,42.40 50.40,42.24 51.38,41.78 51.10,41.43 50.81,41.08 51.65,40.39 52.20,39.46 53.02,38.52 53.57,37.59 54.12,36.66 54.67,35.72 55.22,34.79 56.34,35.04 57.17,34.10 58.00,33.17 58.83,32.23 59.66,31.30 60.48,30.36 61.31,29.43 62.14,28.49 63.08,27.67 64.15,27.01 65.32,26.59 66.57,26.45 67.81,26.32 69.05,26.19 70.29,26.06 71.54,25.93 72.78,25.80 74.02,25.67 75.27,25.54 76.51,25.40 77.75,25.27 79.00,25.14 80.18,25.54 80.97,26.51 81.77,27.47 82.41,28.54 83.06,29.62 83.70,30.69 84.34,31.76 84.99,32.83 85.63,33.90 86.28,34.97 86.92,36.04 87.57,37.11 88.21,38.18 88.86,39.26 89.50,40.33 90.14,41.40 90.79,42.47 91.43,43.54 92.57,43.01 93.70,42.49 94.84,41.96 95.97,41.44 95.78,42.57 96.89,41.99 98.03,42.13 99.11,41.52 100.20,40.90 101.29,40.28 102.38,39.67 103.46,39.05 104.55,38.43 105.64,37.82 106.72,37.20 107.81,36.58 108.90,35.96 109.99,35.35 111.07,34.73 111.67,34.39" fill="none" stroke="#005f73" stroke-width="1.4" />
<circle cx="6.00" cy="41.27" r="1.6" fill="#0a9396" />
<circle cx="114.00" cy="33.07" r="1.8" fill="#ee9b00" />
</svg>